<?xml version="1.0" encoding="UTF-8" standalone="no"?>
<!DOCTYPE svg PUBLIC "-//W3C//DTD SVG 1.1//EN" "http://www.w3.org/Graphics/SVG/1.1/DTD/svg11.dtd">
<!-- Created with Vectornator (http://vectornator.io/) -->
<svg height="100%" stroke-miterlimit="10" style="fill-rule:nonzero;clip-rule:evenodd;stroke-linecap:round;stroke-linejoin:round;" version="1.1" viewBox="0 0 180 180" width="100%" xml:space="preserve" xmlns="http://www.w3.org/2000/svg" xmlns:vectornator="http://vectornator.io" xmlns:xlink="http://www.w3.org/1999/xlink">
<defs/>
<clipPath id="ArtboardFrame">
<rect height="180" width="180" x="0" y="0"/>
</clipPath>
<g clip-path="url(#ArtboardFrame)" id="Layer-1" vectornator:layerName="Layer 1">
<path d="M12.6218 1.62752L167.4 1.62752C173.475 1.62752 178.4 6.55239 178.4 12.6275L178.4 167.707C178.4 173.782 173.475 178.707 167.4 178.707L12.6218 178.707C6.54669 178.707 1.62183 173.782 1.62183 167.707L1.62183 12.6275C1.62183 6.55239 6.54669 1.62752 12.6218 1.62752Z" fill="none" opacity="1" stroke="#5372a5" stroke-linecap="butt" stroke-linejoin="round" stroke-width="3"/>
<path d="M56.9768 31.4224C53.9316 32.3181 50.8864 33.7511 47.8413 35.7215C44.7961 37.6919 42.0197 40.2892 39.5119 43.5135C37.0041 46.7378 35.2128 49.7829 34.1381 52.649C33.0633 55.515 32.4364 67.2478 32.2572 87.8474C32.0781 108.447 32.2572 119.822 32.7946 121.971C33.332 124.121 34.2276 126.449 35.4815 128.957C36.7354 131.465 38.258 133.794 40.0493 135.943C41.8405 138.093 43.8109 139.973 45.9605 141.586C48.11 143.198 51.2447 144.72 55.3646 146.153C59.4845 147.586 71.3965 148.303 91.1005 148.303C110.804 148.303 122.716 147.586 126.836 146.153C130.956 144.72 134.807 142.392 138.39 139.167C141.973 135.943 144.391 133.256 145.645 131.107C146.899 128.957 147.973 126.36 148.869 123.315C149.765 120.269 150.212 108.895 150.212 89.1909C150.212 69.4869 149.496 57.575 148.063 53.455C146.63 49.3351 144.301 45.4839 141.077 41.9013C137.853 38.3188 134.091 35.5423 129.792 33.5719C125.493 31.6015 113.044 30.5268 92.4439 30.3477C71.8443 30.1685 60.0219 30.5268 56.9768 31.4224ZM92.9813 35.7215C111.79 35.9006 121.91 36.1693 123.343 36.5275C124.776 36.8858 126.926 37.871 129.792 39.4831C132.658 41.0953 135.166 43.1552 137.315 45.663C139.465 48.1708 141.256 51.6638 142.689 56.1419C144.122 60.6201 144.839 71.6364 144.839 89.1909C144.839 106.745 144.122 117.762 142.689 122.24C141.256 126.718 138.927 130.569 135.703 133.794C132.479 137.018 128.628 139.346 124.149 140.779C119.671 142.212 108.655 142.929 91.1005 142.929C73.546 142.929 62.5297 142.212 58.0515 140.779C53.5734 139.346 49.7221 137.018 46.4978 133.794C43.2736 130.569 40.9449 126.718 39.5119 122.24C38.0789 117.762 37.4519 106.118 37.6311 87.31C37.8102 68.5017 38.5267 57.4854 39.7806 54.2611C41.0345 51.0368 42.7362 48.1708 44.8857 45.663C47.0352 43.1552 49.3639 41.1848 51.8716 39.7518C54.3794 38.3188 57.1559 37.244 60.2011 36.5275C63.2462 35.811 74.173 35.5423 92.9813 35.7215ZM119.582 53.1864C118.507 54.2611 117.97 55.515 117.97 56.948C117.97 58.381 118.507 59.6349 119.582 60.7097C120.656 61.7844 121.91 62.3218 123.343 62.3218C124.776 62.3218 126.03 61.7844 127.105 60.7097C128.18 59.6349 128.717 58.381 128.717 56.948C128.717 55.515 128.18 54.2611 127.105 53.1864C126.03 52.1116 124.776 51.5742 123.343 51.5742C121.91 51.5742 120.656 52.1116 119.582 53.1864ZM80.6215 61.7844C76.8599 63.2175 73.6356 65.1879 70.9487 67.6956C68.2618 70.2034 66.1122 73.159 64.5001 76.5624C62.888 79.9658 61.9923 83.7275 61.8132 87.8474C61.6341 91.9673 62.261 95.9081 63.694 99.6698C65.127 103.431 67.0974 106.656 69.6052 109.343C72.113 112.03 75.0686 114.179 78.472 115.791C81.8754 117.403 85.6371 118.299 89.757 118.478C93.8769 118.657 97.8177 118.03 101.579 116.597C105.341 115.164 108.565 113.194 111.252 110.686C113.939 108.178 116.089 105.223 117.701 101.819C119.313 98.4159 120.209 94.6543 120.388 90.5343C120.567 86.4144 119.94 82.4736 118.507 78.7119C117.074 74.9503 115.103 71.726 112.596 69.0391C110.088 66.3522 107.132 64.2027 103.729 62.5905C100.326 60.9784 96.5638 60.0827 92.4439 59.9036C88.324 59.7245 84.3832 60.3514 80.6215 61.7844ZM93.7874 65.5461C97.0117 65.9044 99.9672 66.8 102.654 68.233C105.341 69.666 107.58 71.4573 109.371 73.6068C111.163 75.7564 112.596 78.5328 113.67 81.9362C114.745 85.3396 115.103 88.6535 114.745 91.8778C114.387 95.1021 113.491 98.0577 112.058 100.745C110.625 103.431 108.834 105.671 106.685 107.462C104.535 109.253 101.759 110.686 98.3551 111.761C94.9517 112.836 91.6378 113.194 88.4136 112.836C85.1893 112.477 82.2337 111.582 79.5468 110.149C76.8599 108.716 74.6208 106.924 72.8295 104.775C71.0382 102.625 69.6052 99.8489 68.5305 96.4455C67.4557 93.0421 67.0974 89.7283 67.4557 86.504C67.814 83.2797 68.7096 80.3241 70.1426 77.6372C71.5756 74.9503 73.3669 72.7112 75.5164 70.9199C77.6659 69.1287 80.4424 67.6956 83.8458 66.6209C87.2492 65.5461 90.5631 65.1879 93.7874 65.5461Z" fill="#5372a5" fill-rule="nonzero" opacity="1" stroke="none"/>
</g>
</svg>
