<?xml version="1.0" encoding="UTF-8" standalone="no"?>
<!DOCTYPE svg PUBLIC "-//W3C//DTD SVG 1.1//EN" "http://www.w3.org/Graphics/SVG/1.1/DTD/svg11.dtd">
<!-- Created with Vectornator (http://vectornator.io/) -->
<svg height="100%" stroke-miterlimit="10" style="fill-rule:nonzero;clip-rule:evenodd;stroke-linecap:round;stroke-linejoin:round;" version="1.1" viewBox="0 0 180 180" width="100%" xml:space="preserve" xmlns="http://www.w3.org/2000/svg" xmlns:vectornator="http://vectornator.io" xmlns:xlink="http://www.w3.org/1999/xlink">
<defs/>
<clipPath id="ArtboardFrame">
<rect height="180" width="180" x="0" y="0"/>
</clipPath>
<g clip-path="url(#ArtboardFrame)" id="Layer-1" vectornator:layerName="Layer 1">
<path d="M95.6827 22.9934C93.1046 23.4621 90.7023 24.1652 88.4757 25.1027C86.2491 26.0402 84.3741 27.0949 82.8507 28.2668C81.3273 29.4387 79.9796 30.8449 78.8077 32.4855C77.6359 34.1262 76.6984 35.884 75.9952 37.759C75.2921 39.634 74.7648 41.5676 74.4132 43.5598C74.0616 45.5519 73.8859 50.0051 73.8859 56.9191C73.8859 60.3762 73.8859 63.8332 73.8859 67.2902C71.2491 67.2902 68.6124 67.2902 65.9757 67.2902C63.339 67.2902 60.7023 67.2902 58.0655 67.2902C58.0655 71.0402 58.0655 74.7902 58.0655 78.5402C58.0655 82.2902 58.0655 86.0402 58.0655 89.7902C60.7023 89.7902 63.339 89.7902 65.9757 89.7902C68.6124 89.7902 71.2491 89.7902 73.8859 89.7902C73.8859 101.04 73.8859 112.29 73.8859 123.54C73.8859 134.79 73.8859 146.04 73.8859 157.29C78.7491 157.29 83.6124 157.29 88.4757 157.29C93.339 157.29 98.2023 157.29 103.066 157.29C103.066 146.04 103.066 134.79 103.066 123.54C103.066 112.29 103.066 101.04 103.066 89.7902C106.405 89.7902 109.745 89.7902 113.085 89.7902C119.765 89.7902 123.515 86.0402 124.335 78.5402C124.745 74.7902 125.155 71.0402 125.566 67.2902C121.816 67.2902 118.066 67.2902 114.316 67.2902C110.566 67.2902 106.816 67.2902 103.066 67.2902C103.066 64.7121 103.066 62.134 103.066 59.5559C103.066 54.3996 103.241 51.1769 103.593 49.8879C103.944 48.5988 104.413 47.6613 104.999 47.0754C105.585 46.4894 106.347 46.0207 107.284 45.6691C108.222 45.3176 111.503 45.0832 117.128 44.966C122.753 44.8488 125.566 41.0402 125.566 33.5402C125.566 29.7902 125.566 26.0402 125.566 22.2902C121.23 22.2902 116.894 22.2902 112.558 22.2902C103.886 22.2902 98.2609 22.5246 95.6827 22.9934Z" fill="#5372a5" fill-rule="nonzero" opacity="1" stroke="none"/>
<path d="M12.6218 1.62752L167.4 1.62752C173.475 1.62752 178.4 6.55239 178.4 12.6275L178.4 167.707C178.4 173.782 173.475 178.707 167.4 178.707L12.6218 178.707C6.54669 178.707 1.62183 173.782 1.62183 167.707L1.62183 12.6275C1.62183 6.55239 6.54669 1.62752 12.6218 1.62752Z" fill="none" opacity="1" stroke="#5372a5" stroke-linecap="butt" stroke-linejoin="round" stroke-width="3"/>
</g>
</svg>
