<?xml version="1.0" encoding="UTF-8" standalone="no"?>
<!DOCTYPE svg PUBLIC "-//W3C//DTD SVG 1.1//EN" "http://www.w3.org/Graphics/SVG/1.1/DTD/svg11.dtd">
<!-- Created with Vectornator (http://vectornator.io/) -->
<svg height="100%" stroke-miterlimit="10" style="fill-rule:nonzero;clip-rule:evenodd;stroke-linecap:round;stroke-linejoin:round;" version="1.1" viewBox="0 0 180 180" width="100%" xml:space="preserve" xmlns="http://www.w3.org/2000/svg" xmlns:vectornator="http://vectornator.io" xmlns:xlink="http://www.w3.org/1999/xlink">
<defs/>
<clipPath id="ArtboardFrame">
<rect height="180" width="180" x="0" y="0"/>
</clipPath>
<g clip-path="url(#ArtboardFrame)" id="Layer-1" vectornator:layerName="Layer 1">
<path d="M12.6218 1.62752L167.4 1.62752C173.475 1.62752 178.4 6.55239 178.4 12.6275L178.4 167.707C178.4 173.782 173.475 178.707 167.4 178.707L12.6218 178.707C6.54669 178.707 1.62183 173.782 1.62183 167.707L1.62183 12.6275C1.62183 6.55239 6.54669 1.62752 12.6218 1.62752Z" fill="none" opacity="1" stroke="#5372a5" stroke-linecap="butt" stroke-linejoin="round" stroke-width="3"/>
<path d="M85.8572 31.5514C83.8172 31.7314 82.1522 31.9414 80.8622 32.1814C79.5722 32.4214 77.7872 32.8714 75.5072 33.5314C73.2272 34.1914 71.1872 34.8964 69.3872 35.6464C67.5872 36.3964 65.7872 37.2664 63.9872 38.2564C62.1872 39.2464 60.3422 40.4164 58.4522 41.7664C56.5622 43.1164 54.6572 44.6914 52.7372 46.4914C50.8172 48.2914 49.3322 49.8064 48.2822 51.0364C47.2322 52.2664 46.1672 53.6464 45.0872 55.1764C44.0072 56.7064 42.9572 58.3864 41.9372 60.2164C40.9172 62.0464 40.0322 63.8464 39.2822 65.6164C38.5322 67.3864 37.8722 69.2014 37.3022 71.0614C36.7322 72.9214 36.2672 74.7664 35.9072 76.5964C35.5472 78.4264 35.2772 80.3164 35.0972 82.2664C34.9172 84.2164 34.8422 86.2564 34.8722 88.3864C34.9022 90.5164 35.0522 92.6464 35.3222 94.7764C35.5922 96.9064 35.9072 98.7664 36.2672 100.356C36.6272 101.946 37.0172 103.386 37.4372 104.676C37.8572 105.966 38.5772 107.781 39.5972 110.121C40.6172 112.461 41.7572 114.666 43.0172 116.736C44.2772 118.806 45.3272 120.396 46.1672 121.506C47.0072 122.616 47.8622 123.666 48.7322 124.656C49.6022 125.646 50.5172 126.621 51.4772 127.581C52.4372 128.541 53.5022 129.516 54.6722 130.506C55.8422 131.496 56.9222 132.351 57.9122 133.071C58.9022 133.791 60.0422 134.556 61.3322 135.366C62.6222 136.176 63.9722 136.941 65.3822 137.661C66.7922 138.381 68.2172 139.041 69.6572 139.641C71.0972 140.241 72.1172 140.631 72.7172 140.811C73.3172 140.991 73.8272 141.081 74.2472 141.081C74.6672 141.081 75.0272 141.036 75.3272 140.946C75.6272 140.856 75.9122 140.706 76.1822 140.496C76.4522 140.286 76.6922 139.926 76.9022 139.416C77.1122 138.906 77.2022 136.836 77.1722 133.206C77.1572 131.391 77.1422 129.576 77.1272 127.761C76.4672 127.866 75.8072 127.971 75.1472 128.076C73.8272 128.286 72.4772 128.391 71.0972 128.391C69.7172 128.391 68.5322 128.301 67.5422 128.121C66.5522 127.941 65.5472 127.641 64.5272 127.221C63.5072 126.801 62.7122 126.396 62.1422 126.006C61.5722 125.616 60.9722 125.091 60.3422 124.431C59.7122 123.771 59.2172 123.141 58.8572 122.541C58.4972 121.941 58.2572 121.446 58.1372 121.056C58.0172 120.666 57.7472 120.051 57.3272 119.211C56.9072 118.371 56.3822 117.501 55.7522 116.601C55.1222 115.701 54.5072 114.966 53.9072 114.396C53.3072 113.826 52.6022 113.271 51.7922 112.731C50.9822 112.191 50.4422 111.741 50.1722 111.381C49.9022 111.021 49.7672 110.751 49.7672 110.571C49.7672 110.391 49.8122 110.241 49.9022 110.121C49.9922 110.001 50.3372 109.866 50.9372 109.716C51.5372 109.566 52.1972 109.536 52.9172 109.626C53.6372 109.716 54.3722 109.911 55.1222 110.211C55.8722 110.511 56.4572 110.796 56.8772 111.066C57.2972 111.336 57.7922 111.726 58.3622 112.236C58.9322 112.746 59.4122 113.241 59.8022 113.721C60.1922 114.201 60.6872 114.921 61.2872 115.881C61.8872 116.841 62.5022 117.636 63.1322 118.266C63.7622 118.896 64.5122 119.466 65.3822 119.976C66.2522 120.486 67.1672 120.861 68.1272 121.101C69.0872 121.341 70.1972 121.431 71.4572 121.371C72.7172 121.311 74.0072 121.071 75.3272 120.651C76.6472 120.231 77.4122 119.511 77.6222 118.491C77.8322 117.471 78.0422 116.706 78.2522 116.196C78.4622 115.686 78.7772 115.101 79.1972 114.441C79.6172 113.781 79.9922 113.301 80.3222 113.001C80.6522 112.701 80.8172 112.521 80.8172 112.461C80.8172 112.401 79.9772 112.251 78.2972 112.011C76.6172 111.771 75.0872 111.471 73.7072 111.111C72.3272 110.751 71.0672 110.346 69.9272 109.896C68.7872 109.446 67.7372 108.951 66.7772 108.411C65.8172 107.871 64.8122 107.181 63.7622 106.341C62.7122 105.501 61.8572 104.706 61.1972 103.956C60.5372 103.206 59.9222 102.381 59.3522 101.481C58.7822 100.581 58.2722 99.6364 57.8222 98.6464C57.3722 97.6564 56.9822 96.6064 56.6522 95.4964C56.3222 94.3864 56.0372 93.1114 55.7972 91.6714C55.5572 90.2314 55.4072 89.0464 55.3472 88.1164C55.2872 87.1864 55.2872 85.7914 55.3472 83.9314C55.4072 82.0714 55.5272 80.7064 55.7072 79.8364C55.8872 78.9664 56.1572 78.0214 56.5172 77.0014C56.8772 75.9814 57.4172 74.8414 58.1372 73.5814C58.8572 72.3214 59.5172 71.3464 60.1172 70.6564C60.7172 69.9664 60.8522 68.9764 60.5222 67.6864C60.1922 66.3964 60.0122 65.0014 59.9822 63.5014C59.9522 62.0014 59.9972 60.8314 60.1172 59.9914C60.2372 59.1514 60.4922 58.0714 60.8822 56.7514C61.2722 55.4314 61.5122 54.7414 61.6022 54.6814C61.6922 54.6214 62.1272 54.5914 62.9072 54.5914C63.6872 54.5914 64.7372 54.7564 66.0572 55.0864C67.3772 55.4164 68.9522 56.0164 70.7822 56.8864C72.6122 57.7564 74.0972 58.5664 75.2372 59.3164C76.3772 60.0664 77.8922 60.2314 79.7822 59.8114C81.6722 59.3914 83.6972 59.0764 85.8572 58.8664C88.0172 58.6564 89.7722 58.5514 91.1222 58.5514C92.4722 58.5514 93.8972 58.6114 95.3972 58.7314C96.8972 58.8514 98.3072 59.0164 99.6272 59.2264C100.947 59.4364 102.222 59.6914 103.452 59.9914C104.682 60.2914 105.807 60.0964 106.827 59.4064C107.847 58.7164 109.287 57.9214 111.147 57.0214C113.007 56.1214 114.522 55.5064 115.692 55.1764C116.862 54.8464 117.957 54.6664 118.977 54.6364C119.997 54.6064 120.597 54.7714 120.777 55.1314C120.957 55.4914 121.167 56.0914 121.407 56.9314C121.647 57.7714 121.857 58.8214 122.037 60.0814C122.217 61.3414 122.277 62.6464 122.217 63.9964C122.157 65.3464 122.052 66.3814 121.902 67.1014C121.752 67.8214 121.587 68.4064 121.407 68.8564C121.227 69.3064 121.422 69.8614 121.992 70.5214C122.562 71.1814 123.222 72.1564 123.972 73.4464C124.722 74.7364 125.262 75.8314 125.592 76.7314C125.922 77.6314 126.192 78.5614 126.402 79.5214C126.612 80.4814 126.747 81.2464 126.807 81.8164C126.867 82.3864 126.882 83.6614 126.852 85.6414C126.822 87.6214 126.747 89.1364 126.627 90.1864C126.507 91.2364 126.312 92.3614 126.042 93.5614C125.772 94.7614 125.427 95.9314 125.007 97.0714C124.587 98.2114 124.032 99.3814 123.342 100.581C122.652 101.781 121.842 102.906 120.912 103.956C119.982 105.006 119.157 105.816 118.437 106.386C117.717 106.956 116.817 107.556 115.737 108.186C114.657 108.816 113.502 109.371 112.272 109.851C111.042 110.331 109.572 110.781 107.862 111.201C106.152 111.621 104.637 111.921 103.317 112.101C102.657 112.191 101.997 112.281 101.337 112.371C101.562 112.626 101.787 112.881 102.012 113.136C102.462 113.646 102.882 114.246 103.272 114.936C103.662 115.626 104.037 116.646 104.397 117.996C104.757 119.346 104.952 123.171 104.982 129.471C105.012 135.771 105.102 139.101 105.252 139.461C105.402 139.821 105.582 140.106 105.792 140.316C106.002 140.526 106.302 140.706 106.692 140.856C107.082 141.006 107.487 141.081 107.907 141.081C108.327 141.081 108.927 140.961 109.707 140.721C110.487 140.481 111.417 140.136 112.497 139.686C113.577 139.236 114.897 138.621 116.457 137.841C118.017 137.061 119.487 136.236 120.867 135.366C122.247 134.496 123.447 133.686 124.467 132.936C125.487 132.186 126.672 131.226 128.022 130.056C129.372 128.886 130.647 127.671 131.847 126.411C133.047 125.151 134.157 123.876 135.177 122.586C136.197 121.296 137.172 119.946 138.102 118.536C139.032 117.126 139.857 115.761 140.577 114.441C141.297 113.121 142.002 111.666 142.692 110.076C143.382 108.486 144.012 106.836 144.582 105.126C145.152 103.416 145.617 101.751 145.977 100.131C146.337 98.5114 146.652 96.5464 146.922 94.2364C147.192 91.9264 147.327 89.7064 147.327 87.5764C147.327 85.4464 147.192 83.2264 146.922 80.9164C146.652 78.6064 146.337 76.6414 145.977 75.0214C145.617 73.4014 145.197 71.8564 144.717 70.3864C144.237 68.9164 143.727 67.5214 143.187 66.2014C142.647 64.8814 141.942 63.3814 141.072 61.7014C140.202 60.0214 139.377 58.5664 138.597 57.3364C137.817 56.1064 136.812 54.6964 135.582 53.1064C134.352 51.5164 133.122 50.0764 131.892 48.7864C130.662 47.4964 129.432 46.3114 128.202 45.2314C126.972 44.1514 125.472 42.9814 123.702 41.7214C121.932 40.4614 120.447 39.4864 119.247 38.7964C118.047 38.1064 116.697 37.4014 115.197 36.6814C113.697 35.9614 112.017 35.2714 110.157 34.6114C108.297 33.9514 106.812 33.4714 105.702 33.1714C104.592 32.8714 103.257 32.5714 101.697 32.2714C100.137 31.9714 98.3372 31.7314 96.2972 31.5514C94.2572 31.3714 92.5172 31.2814 91.0772 31.2814C89.6372 31.2814 87.8972 31.3714 85.8572 31.5514ZM54.7622 111.246C54.6722 111.336 54.6572 111.501 54.7172 111.741C54.7772 111.981 54.8822 112.146 55.0322 112.236C55.1822 112.326 55.3772 112.371 55.6172 112.371C55.8572 112.371 56.0222 112.326 56.1122 112.236C56.2022 112.146 56.2472 112.041 56.2472 111.921C56.2472 111.801 56.1872 111.666 56.0672 111.516C55.9472 111.366 55.7222 111.261 55.3922 111.201C55.0622 111.141 54.8522 111.156 54.7622 111.246ZM57.1922 113.136C57.0422 113.226 56.9672 113.391 56.9672 113.631C56.9672 113.871 57.0722 114.111 57.2822 114.351C57.4922 114.591 57.7172 114.726 57.9572 114.756C58.1972 114.786 58.3772 114.726 58.4972 114.576C58.6172 114.426 58.6622 114.261 58.6322 114.081C58.6022 113.901 58.4972 113.706 58.3172 113.496C58.1372 113.286 57.9422 113.151 57.7322 113.091C57.5222 113.031 57.3422 113.046 57.1922 113.136ZM59.3522 116.061C59.2022 116.181 59.1272 116.376 59.1272 116.646C59.1272 116.916 59.2322 117.186 59.4422 117.456C59.6522 117.726 59.8772 117.891 60.1172 117.951C60.3572 118.011 60.5522 117.966 60.7022 117.816C60.8522 117.666 60.9272 117.471 60.9272 117.231C60.9272 116.991 60.8222 116.736 60.6122 116.466C60.4022 116.196 60.1772 116.031 59.9372 115.971C59.6972 115.911 59.5022 115.941 59.3522 116.061ZM61.9172 119.301C61.7972 119.421 61.7372 119.586 61.7372 119.796C61.7372 120.006 61.7822 120.201 61.8722 120.381C61.9622 120.561 62.1722 120.756 62.5022 120.966C62.8322 121.176 63.1172 121.251 63.3572 121.191C63.5972 121.131 63.7472 121.056 63.8072 120.966C63.8672 120.876 63.8672 120.666 63.8072 120.336C63.7472 120.006 63.5672 119.721 63.2672 119.481C62.9672 119.241 62.6972 119.121 62.4572 119.121C62.2172 119.121 62.0372 119.181 61.9172 119.301ZM65.8322 121.776C65.6222 121.926 65.5322 122.121 65.5622 122.361C65.5922 122.601 65.7572 122.826 66.0572 123.036C66.3572 123.246 66.6872 123.336 67.0472 123.306C67.4072 123.276 67.6472 123.186 67.7672 123.036C67.8872 122.886 67.9172 122.691 67.8572 122.451C67.7972 122.211 67.6622 122.016 67.4522 121.866C67.2422 121.716 66.9722 121.626 66.6422 121.596C66.3122 121.566 66.0422 121.626 65.8322 121.776ZM75.0572 121.866C74.8172 121.956 74.6372 122.076 74.5172 122.226C74.3972 122.376 74.3522 122.571 74.3822 122.811C74.4122 123.051 74.5322 123.231 74.7422 123.351C74.9522 123.471 75.1772 123.531 75.4172 123.531C75.6572 123.531 75.8822 123.486 76.0922 123.396C76.3022 123.306 76.4822 123.141 76.6322 122.901C76.7822 122.661 76.7972 122.436 76.6772 122.226C76.5572 122.016 76.3172 121.881 75.9572 121.821C75.5972 121.761 75.2972 121.776 75.0572 121.866ZM70.5122 122.541C70.2422 122.721 70.1072 122.931 70.1072 123.171C70.1072 123.411 70.2572 123.621 70.5572 123.801C70.8572 123.981 71.1872 124.041 71.5472 123.981C71.9072 123.921 72.1622 123.801 72.3122 123.621C72.4622 123.441 72.5222 123.261 72.4922 123.081C72.4622 122.901 72.3572 122.736 72.1772 122.586C71.9972 122.436 71.7422 122.346 71.4122 122.316C71.0822 122.286 70.7822 122.361 70.5122 122.541Z" fill="#5372a5" fill-rule="nonzero" opacity="1" stroke="none"/>
</g>
</svg>
