<?xml version="1.0" encoding="UTF-8" standalone="no"?>
<!DOCTYPE svg PUBLIC "-//W3C//DTD SVG 1.1//EN" "http://www.w3.org/Graphics/SVG/1.1/DTD/svg11.dtd">
<!-- Created with Vectornator (http://vectornator.io/) -->
<svg height="100%" stroke-miterlimit="10" style="fill-rule:nonzero;clip-rule:evenodd;stroke-linecap:round;stroke-linejoin:round;" version="1.1" viewBox="0 0 180 180" width="100%" xml:space="preserve" xmlns="http://www.w3.org/2000/svg" xmlns:vectornator="http://vectornator.io" xmlns:xlink="http://www.w3.org/1999/xlink">
<defs/>
<clipPath id="ArtboardFrame">
<rect height="180" width="180" x="0" y="0"/>
</clipPath>
<g clip-path="url(#ArtboardFrame)" id="Layer-1" vectornator:layerName="Layer 1">
<path d="M12.6218 1.62752L167.4 1.62752C173.475 1.62752 178.4 6.55239 178.4 12.6275L178.4 167.707C178.4 173.782 173.475 178.707 167.4 178.707L12.6218 178.707C6.54669 178.707 1.62183 173.782 1.62183 167.707L1.62183 12.6275C1.62183 6.55239 6.54669 1.62752 12.6218 1.62752Z" fill="none" opacity="1" stroke="#5372a5" stroke-linecap="butt" stroke-linejoin="round" stroke-width="3"/>
<path d="M49.2758 34.7597C47.7904 35.3539 46.4536 36.2451 45.2652 37.4334C44.0769 38.6217 43.2599 39.7358 42.8143 40.7756C42.3687 41.8154 42.2201 43.5236 42.3687 45.9002C42.5172 48.2769 43.1114 50.2079 44.1512 51.6933C45.191 53.1787 46.3793 54.2928 47.7162 55.0355C49.053 55.7782 51.2811 56.1496 54.4005 56.1496C57.5198 56.1496 59.748 55.7782 61.0848 55.0355C62.4217 54.2928 63.61 53.1787 64.6498 51.6933C65.6896 50.2079 66.2095 48.0541 66.2095 45.2318C66.2095 42.4095 65.9124 40.4785 65.3182 39.4387C64.7241 38.3989 63.7586 37.3592 62.4217 36.3194C61.0848 35.2796 58.931 34.6111 55.9602 34.3141C52.9894 34.017 50.7612 34.1655 49.2758 34.7597ZM113.891 64.1708C112.109 64.4678 110.4 64.9877 108.766 65.7304C107.132 66.4731 105.721 67.2901 104.533 68.1814C103.345 69.0726 102.231 70.2609 101.191 71.7463C100.671 72.4891 100.151 73.2318 99.6312 73.9745C99.5569 72.5633 99.4826 71.1522 99.4084 69.741C99.2598 66.9188 95.5463 65.5076 88.2678 65.5076C84.6285 65.5076 80.9893 65.5076 77.35 65.5076C77.35 76.4254 77.35 87.3431 77.35 98.2609C77.35 109.179 77.35 120.096 77.35 131.014C80.9893 131.014 84.6285 131.014 88.2678 131.014C91.907 131.014 95.5463 131.014 99.1855 131.014C99.1855 124.33 99.1855 117.645 99.1855 110.961C99.1855 97.5924 99.7054 89.8683 100.745 87.7888C101.785 85.7092 102.973 84.2238 104.31 83.3325C105.647 82.4413 106.984 81.8471 108.321 81.55C109.658 81.253 110.995 81.1787 112.331 81.3272C113.668 81.4758 114.931 81.8471 116.119 82.4413C117.308 83.0354 118.496 84.4466 119.684 86.6747C120.872 88.9028 121.541 96.8497 121.689 110.515C121.764 117.348 121.838 124.181 121.912 131.014C125.552 131.014 129.191 131.014 132.83 131.014C136.469 131.014 140.109 131.014 143.748 131.014C143.748 123.81 143.748 116.606 143.748 109.401C143.748 94.993 143.376 86.2291 142.634 83.1097C141.891 79.9904 140.926 77.3909 139.737 75.3113C138.549 73.2318 136.915 71.3007 134.835 69.5182C132.756 67.7357 130.528 66.3989 128.151 65.5076C125.774 64.6164 123.249 64.0965 120.575 63.948C117.902 63.7994 115.674 63.8737 113.891 64.1708ZM43.4827 98.2609C43.4827 109.179 43.4827 120.096 43.4827 131.014C47.122 131.014 50.7612 131.014 54.4005 131.014C58.0397 131.014 61.679 131.014 65.3182 131.014C65.3182 120.096 65.3182 109.179 65.3182 98.2609C65.3182 87.3431 65.3182 76.4254 65.3182 65.5076C61.679 65.5076 58.0397 65.5076 54.4005 65.5076C50.7612 65.5076 47.122 65.5076 43.4827 65.5076C43.4827 76.4254 43.4827 87.3431 43.4827 98.2609Z" fill="#5372a5" fill-rule="nonzero" opacity="1" stroke="none"/>
</g>
</svg>
